<svg xmlns="http://www.w3.org/2000/svg" xmlns:xlink="http://www.w3.org/1999/xlink" width="78.136" height="32.755" viewBox="0 0 78.136 32.755">
  <defs>
    <radialGradient id="radial-gradient" cx="0.505" cy="0.567" r="0.502" gradientTransform="translate(0)" gradientUnits="objectBoundingBox">
      <stop offset="0" stop-color="#ffd25a"/>
      <stop offset="0.48" stop-color="#fbb432"/>
      <stop offset="0.73" stop-color="#f9a41c"/>
      <stop offset="0.81" stop-color="#f9b61e"/>
      <stop offset="0.95" stop-color="#fad923"/>
      <stop offset="1" stop-color="#fbed25"/>
    </radialGradient>
  </defs>
  <g id="组_22661" data-name="组 22661" transform="translate(-20.364 -53.712)">
    <g id="组_22660" data-name="组 22660">
      <g id="组_21309" data-name="组 21309" transform="translate(16.364 50.712)">
        <g id="Group_3381" data-name="Group 3381" transform="translate(4 3)">
          <g id="组_21308" data-name="组 21308">
            <g id="组_21307" data-name="组 21307" transform="translate(0 6.024)">
              <path id="Path_812" data-name="Path 812" d="M364.14,133.779a25.175,25.175,0,0,0,.3,3.756c.174.767.277,1.813,1.049,2.224a1.464,1.464,0,0,0,1.371-.012c.327-.181.572-.482.893-.671a.787.787,0,0,1,1.016.078c.219.3.05.712-.151,1.015a4.337,4.337,0,0,1-6.019,1.176h0q-.12-.081-.235-.17a7.123,7.123,0,0,1-2.276-4.738c-.586-4.038.174-8.161-.19-12.224a6.108,6.108,0,0,0-.514-2.192,1.122,1.122,0,0,0-.345-.445c-.425-.289-1.066-.028-1.478-.334a.878.878,0,0,1,.031-1.273,2.328,2.328,0,0,1,1.322-.523,4.3,4.3,0,0,1,2.748.252,3.925,3.925,0,0,1,1.6,2.156,16.639,16.639,0,0,1,.839,5.529c.036,1.931.073,3.859.019,5.792" transform="translate(-339.264 -119.34)" fill="#3890ce"/>
              <path id="Path_813" data-name="Path 813" d="M9.7,151.887A3.866,3.866,0,0,1,7.741,149.4c-.224-1.588-.56-3.578,1.211-8.4a28.824,28.824,0,0,1,4.626.346c2.63.4,3.768.84,4.4.931s.905-.009,1.091-.183.065-.494-.392-.876S16,139.586,9.886,138.762a37.878,37.878,0,0,1,3.731-6.353c1.847-2.282,3.748-4.472,5.391-4.673,0,0-.746-.2-.9-.73s.653-1.005.653-1.005-1.642.346-4.719,3.6a42.467,42.467,0,0,0-6.209,8.927,9.05,9.05,0,0,0-5.316.73C.353,140.3.168,141.265,0,141.829c0,0,4.588-1.022,6.659-.767a6.7,6.7,0,0,0-.442,1.032c-.233.59-.457,1.182-.662,1.782a17.848,17.848,0,0,0-.882,3.673,5.691,5.691,0,0,0,.385,3.211C5.956,152.556,8.026,152.776,9.7,151.887Z" transform="translate(0 -125.664)" fill="#30b354"/>
            </g>
            <circle id="Ellipse_444" data-name="Ellipse 444" cx="2.329" cy="2.329" r="2.329" transform="translate(18.874)" fill="url(#radial-gradient)"/>
          </g>
        </g>
        <path id="路径_23021" data-name="路径 23021" d="M7.752-3.012h-1.7L5.38-4.767H2.292L1.655-3.012H0l3.009-7.725H4.658ZM4.88-6.068,3.815-8.935,2.772-6.068Zm3.8-3.3v-1.37h1.481v1.37Zm0,6.355v-5.6h1.481v5.6Zm4.856,0V-9.43H11.24v-1.307h6.139V-9.43H15.092v6.418Zm4.84-5.6h1.365v.764a2.2,2.2,0,0,1,1.744-.891,1.879,1.879,0,0,1,.933.221,1.7,1.7,0,0,1,.648.669,2.585,2.585,0,0,1,.8-.669,1.952,1.952,0,0,1,.912-.221,2.03,2.03,0,0,1,1.043.25,1.533,1.533,0,0,1,.638.735A3.189,3.189,0,0,1,26.6-6.59v3.578H25.123v-3.2a2.38,2.38,0,0,0-.153-1.075.7.7,0,0,0-.632-.316,1.009,1.009,0,0,0-.585.19,1.052,1.052,0,0,0-.4.556A4,4,0,0,0,23.236-5.7v2.688H21.755V-6.079a4.254,4.254,0,0,0-.079-1.054.673.673,0,0,0-.245-.353.775.775,0,0,0-.451-.116,1.079,1.079,0,0,0-.617.184,1.012,1.012,0,0,0-.393.532,3.956,3.956,0,0,0-.119,1.154v2.719H18.372ZM31.428-4.793l1.475.248A2.42,2.42,0,0,1,32-3.31a2.639,2.639,0,0,1-1.536.424,2.5,2.5,0,0,1-2.161-.954,3.2,3.2,0,0,1-.553-1.929,3.09,3.09,0,0,1,.727-2.179,2.4,2.4,0,0,1,1.839-.788,2.484,2.484,0,0,1,1.971.825,3.649,3.649,0,0,1,.69,2.527h-3.71a1.5,1.5,0,0,0,.358,1.025,1.121,1.121,0,0,0,.854.366.907.907,0,0,0,.585-.19A1.172,1.172,0,0,0,31.428-4.793Zm.084-1.5a1.426,1.426,0,0,0-.332-.978,1.019,1.019,0,0,0-.769-.335,1.028,1.028,0,0,0-.8.353,1.366,1.366,0,0,0-.311.959ZM39.43-3.012H38.054v-.822a2.222,2.222,0,0,1-.809.714,2.075,2.075,0,0,1-.941.234,2.132,2.132,0,0,1-1.652-.777,3.162,3.162,0,0,1-.688-2.168,3.125,3.125,0,0,1,.669-2.163,2.182,2.182,0,0,1,1.692-.74,2.1,2.1,0,0,1,1.623.78v-2.782H39.43ZM35.477-5.931a2.563,2.563,0,0,0,.248,1.3,1.119,1.119,0,0,0,1,.58A1.09,1.09,0,0,0,37.6-4.49a2.007,2.007,0,0,0,.358-1.3,2.2,2.2,0,0,0-.348-1.389,1.1,1.1,0,0,0-.891-.424,1.113,1.113,0,0,0-.883.419A1.893,1.893,0,0,0,35.477-5.931Z" transform="translate(42.707 26.751)"/>
      </g>
    </g>
  </g>
</svg>
